# xmcd
#
# Track frame offsets:
#	150
#	19445
#	34352
#	51000
#	67347
#	87147
#	104147
#	121427
#	136800
#	151897
#	171612
#	186720
#	206912
#	224577
#	238492
#	255132
#	268285
#
# Disc length: 3871 seconds
#
# Revision: 4
# Processed by: cddbd v1.5.2PL0 Copyright (c) Steve Scherf et al.
# Submitted via: EasyCDDAExtractor 15.3.0.1
#
DISCID=1b0f1d11
DTITLE=Pandora - Nuestras Mejores Canciones - 17 Super Exitos Vol. II
DYEAR=1993
DGENRE=Latin
TTITLE0=Nadie Baila Como Tu, El Noa Noa
TTITLE1=Desde El Dia Que Te Fuiste (Without You)
TTITLE2=Sueños
TTITLE3=Como Te Va Mi Amor
TTITLE4=La Farsante
TTITLE5=Matandome Suavemente (Killing Me Softly With His Song)
TTITLE6=Yo No Naci Para Amar
TTITLE7=Atrapada
TTITLE8=Si Fuera Tu
TTITLE9=Con Tu Amor
TTITLE10=Rezo Una Oracion Por Ti (I Say A Little Prayer)
TTITLE11=Costumbres
TTITLE12=No Puedo Dejar De Pensar En Ti
TTITLE13=Puede Ser Genial (Could It Be Magic)
TTITLE14=Pierdo El Control (Love Will Keep Us Together)
TTITLE15=Amor Amor
TTITLE16=Popurri (Debo Hacerlo, Caray, Querida, Me Nace Del Corazon)
EXTD=
EXTT0=
EXTT1=
EXTT2=
EXTT3=
EXTT4=
EXTT5=
EXTT6=
EXTT7=
EXTT8=
EXTT9=
EXTT10=
EXTT11=
EXTT12=
EXTT13=
EXTT14=
EXTT15=
EXTT16=
PLAYORDER=
